<svg width="127" height="52" viewBox="0 0 127 52" fill="none" xmlns="http://www.w3.org/2000/svg">
<g clip-path="url(#clip0_103_696)">
<path fill-rule="evenodd" clip-rule="evenodd" d="M1.41479 11.8187C2.64624 13.4916 4.26924 14.4875 6.28376 14.8066C8.29828 15.1257 10.135 14.6777 11.794 13.4626C13.4821 12.252 14.4875 10.6282 14.8101 8.59102C15.1328 6.55383 14.6759 4.71445 13.4395 3.07288C12.2372 1.40458 10.6289 0.410909 8.61435 0.0918403C6.59983 -0.227228 4.74849 0.218483 3.06035 1.42898C1.40637 2.61275 0.418043 4.22325 0.0953838 6.26044C-0.227275 8.29763 0.212533 10.1503 1.41479 11.8187ZM9.83116 2.40951C10.4456 3.25517 10.2581 4.43879 9.41244 5.05319L9.23643 5.18107L10.3919 6.7715L11.8736 5.69504C12.476 6.52411 12.3075 7.67801 11.5039 8.30193L11.9426 8.90587C12.2499 9.3287 12.1561 9.92051 11.7333 10.2277C11.3105 10.5349 10.7186 10.4412 10.4114 10.0184L9.97323 9.4152L8.33749 10.6036L8.91546 11.3991C9.22265 11.822 9.12893 12.4137 8.7061 12.721C8.28326 13.0282 7.69145 12.9345 7.38424 12.5116L6.80627 11.7162L5.95488 12.3347C5.53204 12.6419 4.94023 12.5482 4.63304 12.1253C4.32582 11.7025 4.41956 11.1107 4.84238 10.8035L5.6938 10.1849L4.53829 8.59448L3.85501 9.09091C3.43218 9.39812 2.84037 9.30438 2.53316 8.88155C2.22596 8.45871 2.31969 7.8669 2.74252 7.5597L3.42579 7.06327L3.34654 6.95419C2.73213 6.10852 2.9196 4.92489 3.76526 4.31049L4.95701 5.95079L6.59274 4.76236L6.5743 4.73698C5.95989 3.89132 6.14735 2.7077 6.99302 2.09328L8.12394 3.64987L9.83116 2.40951ZM6.06949 7.48199L7.70522 6.29356L8.86074 7.884L7.225 9.07242L6.06949 7.48199Z" fill="#8853F4"/>
<path d="M2.93716 50.6881V18.0305H11.9925V50.6881H2.93716Z" fill="black"/>
<path d="M28.2919 31.8181V50.6882H19.2366V18.0307H28.1459V23.8436H28.4672C29.2072 21.9352 30.3854 20.4259 32.0017 19.316C33.6181 18.1864 35.6336 17.6218 38.0484 17.6218C41.4562 17.6218 44.1825 18.7221 46.2273 20.9226C48.2915 23.1036 49.3236 26.1026 49.3236 29.9195V50.6882H40.2683V31.526C40.2683 29.5203 39.7522 27.9526 38.7202 26.8231C37.7075 25.6936 36.2957 25.1288 34.4846 25.1288C32.6541 25.1288 31.1644 25.7228 30.0154 26.9107C28.8665 28.0792 28.2919 29.715 28.2919 31.8181Z" fill="black"/>
<path d="M58.7003 50.688V24.8657H54.1142V18.0305H58.7003V15.6644C58.7003 12.1397 59.7129 9.50099 61.7382 7.74835C63.783 5.99571 66.334 5.11938 69.3913 5.11938C70.7935 5.11938 72.069 5.23623 73.2179 5.46991C74.3864 5.68413 75.2432 5.86913 75.7885 6.02492L74.1819 12.8018C73.8313 12.7045 73.403 12.607 72.8966 12.5097C72.3904 12.4123 71.8548 12.3636 71.2901 12.3636C69.9658 12.3636 69.0311 12.6752 68.4859 13.2984C67.9601 13.9021 67.6972 14.7589 67.6972 15.8689V18.0305H74.2111V24.8657H67.6972V50.688H58.7003Z" fill="black"/>
<path d="M88.8165 7.16412V50.688H79.7612V7.16412H88.8165Z" fill="black"/>
<path d="M116.976 36.813V18.0305H126.031V50.6881H117.326V44.7583H116.976C116.255 46.6667 115.038 48.2051 113.324 49.3736C111.63 50.5419 109.556 51.1165 107.102 51.097C103.811 51.1165 101.143 50.0357 99.0985 47.8546C97.0733 45.6541 96.0606 42.6454 96.0606 38.8285V18.0305H105.116V37.2512C105.116 39.1595 105.632 40.6785 106.664 41.808C107.696 42.918 109.069 43.4633 110.783 43.4438C112.399 43.4633 113.831 42.9083 115.077 41.7788C116.343 40.6493 116.976 38.9941 116.976 36.813Z" fill="black"/>
</g>
<defs>
<clipPath id="clip0_103_696">
<rect width="126.037" height="51.1437" fill="white"/>
</clipPath>
</defs>
</svg>
