<svg width="346" height="119" viewBox="0 0 346 119" fill="none" xmlns="http://www.w3.org/2000/svg">
<g clip-path="url(#clip0_2442_80)">
<g opacity="0.1">
<path fill-rule="evenodd" clip-rule="evenodd" d="M4.91318 25.4545C7.34459 28.7575 10.5491 30.724 14.5266 31.3539C18.5041 31.9839 22.1305 31.0993 25.4061 28.7003C28.7392 26.3101 30.7242 23.104 31.3613 19.0818C31.9983 15.0595 31.0963 11.4278 28.6551 8.18662C26.2812 4.89269 23.1057 2.93076 19.1282 2.30079C15.1506 1.67081 11.4953 2.55083 8.16222 4.94087C4.89656 7.27813 2.94519 10.4579 2.30812 14.4802C1.67106 18.5025 2.53943 22.1605 4.91318 25.4545ZM21.5306 6.87684C22.7437 8.54653 22.3736 10.8835 20.7039 12.0966L20.3564 12.3491L22.6379 15.4893L25.5633 13.3639C26.7526 15.0008 26.4201 17.2791 24.8334 18.511L25.6996 19.7034C26.3062 20.5382 26.1211 21.7067 25.2862 22.3133C24.4515 22.9199 23.2829 22.7348 22.6764 21.8999L21.8112 20.709L18.5815 23.0555L19.7227 24.6261C20.3292 25.461 20.1441 26.6294 19.3093 27.236C18.4744 27.8427 17.306 27.6576 16.6994 26.8227L15.5583 25.2521L13.8772 26.4733C13.0424 27.0799 11.8739 26.8948 11.2674 26.0599C10.6608 25.2252 10.8459 24.0566 11.6807 23.4502L13.3618 22.2288L11.0803 19.0886L9.73121 20.0687C8.89637 20.6753 7.72789 20.4902 7.12133 19.6554C6.51477 18.8205 6.69984 17.652 7.53469 17.0455L8.88376 16.0653L8.72729 15.85C7.51417 14.1802 7.88431 11.8433 9.55402 10.6302L11.907 13.8688L15.1366 11.5224L15.1002 11.4723C13.8871 9.80256 14.2573 7.46559 15.927 6.25248L18.1599 9.32584L21.5306 6.87684ZM14.1035 16.8921L17.3332 14.5456L19.6146 17.6858L16.385 20.0322L14.1035 16.8921Z" fill="#CD98FF"/>
<path d="M4.72803 127.363V39.4749H29.0978V127.363H4.72803Z" fill="white"/>
<path d="M72.9631 76.58V127.364H48.5934V39.4753H72.5701V55.1191H73.4349C75.4264 49.9831 78.5971 45.9214 82.9468 42.9344C87.2969 39.8944 92.721 38.3748 99.2197 38.3748C108.391 38.3748 115.728 41.3359 121.231 47.2579C126.786 53.1277 129.564 61.1984 129.564 71.4704V127.364H105.194V75.794C105.194 70.3961 103.805 66.1772 101.028 63.1375C98.3023 60.0979 94.5028 58.5779 89.629 58.5779C84.7026 58.5779 80.6935 60.1764 77.6012 63.3733C74.5093 66.5178 72.9631 70.9202 72.9631 76.58Z" fill="white"/>
<path d="M154.798 127.363V57.8696H142.456V39.4745H154.798V33.1069C154.798 23.6211 157.523 16.5198 162.974 11.8031C168.477 7.0864 175.342 4.72803 183.57 4.72803C187.344 4.72803 190.776 5.04248 193.868 5.67137C197.013 6.24788 199.319 6.74576 200.786 7.165L196.463 25.403C195.519 25.1411 194.366 24.8789 193.004 24.617C191.641 24.3548 190.2 24.2237 188.68 24.2237C185.116 24.2237 182.601 25.0623 181.133 26.7395C179.718 28.3641 179.011 30.6701 179.011 33.6571V39.4745H196.541V57.8696H179.011V127.363H154.798Z" fill="white"/>
<path d="M235.847 10.2309V127.363H211.478V10.2309H235.847Z" fill="white"/>
<path d="M311.629 90.0224V39.4749H336V127.363H312.572V111.405H311.629C309.691 116.541 306.415 120.681 301.801 123.826C297.244 126.97 291.662 128.516 285.058 128.464C276.202 128.516 269.021 125.607 263.519 119.738C258.068 113.816 255.343 105.719 255.343 95.4465V39.4749H279.713V91.2017C279.713 96.3374 281.102 100.425 283.879 103.465C286.657 106.452 290.352 107.92 294.964 107.867C299.313 107.92 303.166 106.426 306.519 103.386C309.926 100.347 311.629 95.8921 311.629 90.0224Z" fill="white"/>
</g>
</g>
<defs>
<clipPath id="clip0_2442_80">
<rect width="346" height="119" fill="white"/>
</clipPath>
</defs>
</svg>
